<svg width="16" height="17" viewBox="0 0 16 17" fill="none" xmlns="http://www.w3.org/2000/svg">
<path d="M14.4583 16.9167H10.7083C10.1329 16.9167 9.66667 16.4505 9.66667 15.8751V12.1251C9.66667 11.6647 9.29375 11.2917 8.83333 11.2917H7.16667C6.70625 11.2917 6.33333 11.6647 6.33333 12.1251V15.8751C6.33333 16.4505 5.86708 16.9167 5.29167 16.9167H1.54167C0.96625 16.9167 0.5 16.4505 0.5 15.8751V7.92216C0.5 6.96425 0.939167 6.05925 1.69125 5.46675L7.61292 0.800498C7.84 0.622165 8.16 0.622165 8.38667 0.800498L14.3092 5.46675C15.0612 6.05925 15.5 6.96383 15.5 7.92133V15.8751C15.5 16.4505 15.0337 16.9167 14.4583 16.9167Z" fill="white"/>
</svg>
