<svg width="1148" height="928" viewBox="0 0 1148 928" fill="none" xmlns="http://www.w3.org/2000/svg">
<path d="M294.5 157.5L582.5 87.5L876 144L893 595L764.5 743.5L584.5 868L415.5 758.5L285 595L294.5 157.5Z" fill="white"/>
<path d="M565.176 13.0385C537.618 61.7257 425.086 102.145 300.152 108.576C270.756 109.954 244.116 113.169 241.36 115.925C236.767 119.14 235.389 166.449 235.389 323.994V527.929H189.458C152.253 527.929 143.526 529.307 143.526 534.819C143.526 540.331 132.044 541.709 79.6819 542.627L15.3779 544.005L40.6402 583.047C53.9603 604.635 65.4431 624.844 65.4431 628.519C65.4431 632.193 58.5534 645.513 50.2858 658.374C41.5588 671.235 30.076 689.608 24.5642 698.794L14 716.248H94.8392C163.736 716.248 175.678 717.166 175.678 723.137C175.678 729.109 185.324 730.027 234.93 730.027H294.641L321.281 758.045C369.509 809.029 448.051 863.687 541.292 911.456C586.305 934.881 580.793 935.34 648.772 899.055C728.692 856.338 794.374 809.029 841.683 760.342L871.539 730.027H927.575C972.128 730.027 984.53 728.649 987.286 723.137C990.501 717.626 1005.66 716.248 1065.83 715.329L1140.24 713.951L1114.06 671.235L1088.33 628.978L1114.06 586.262L1140.24 544.005L1078.23 542.627C1027.25 541.709 1016.22 540.331 1016.22 534.819C1016.22 529.307 1007.95 527.929 972.588 527.929H928.953L928.034 319.86L926.656 112.25L870.62 109.035C736.96 101.686 633.614 64.9409 600.544 12.1199C589.979 -4.41542 575.281 -3.95611 565.176 13.0385ZM608.352 120.518C627.184 139.809 641.423 148.536 669.441 159.56C692.866 168.746 702.052 173.798 694.244 174.258C683.22 174.258 623.969 201.357 595.95 218.811L582.63 227.538L559.205 211.921C538.077 197.223 504.547 180.229 481.122 172.42C473.773 169.664 477.448 166.909 499.035 158.182C531.647 144.862 556.449 127.867 570.229 109.954C575.741 102.145 580.793 96.1743 582.171 96.1743C583.09 96.1743 595.032 107.198 608.352 120.518ZM439.324 182.066C437.487 186.659 435.191 198.142 433.813 207.788C431.975 224.782 431.975 224.782 414.981 221.567C375.939 213.759 375.48 214.218 374.102 250.963C373.183 276.685 374.102 284.493 379.154 284.493C389.719 284.493 396.149 273.929 396.149 256.015C396.149 244.533 397.986 239.48 402.12 240.399C404.876 241.777 413.144 243.614 420.493 244.992C432.435 247.748 432.894 248.666 432.894 281.278C432.894 306.54 435.65 319.401 443.918 337.314L454.941 360.28L455.4 276.225C455.86 192.63 455.86 192.63 466.424 192.63C479.285 193.089 507.762 205.95 540.373 226.619C563.798 241.317 566.095 244.533 566.095 259.231C566.095 268.876 568.392 275.307 572.066 275.307C574.822 275.307 582.171 276.685 587.683 278.062C596.869 280.359 597.788 278.981 599.166 261.068L600.544 241.317L641.882 219.27C664.847 207.328 688.732 197.223 696.081 197.223H708.482V236.265C708.482 274.847 708.482 275.307 719.965 275.307C729.611 275.307 731.448 273.01 731.448 261.987C731.448 246.37 732.367 245.451 755.792 241.317L772.786 238.102V256.934C772.786 272.091 774.164 275.307 781.972 275.307C790.24 275.307 791.159 272.091 791.159 245.911C791.159 229.375 789.322 215.137 787.484 213.759C785.188 212.381 772.327 214.218 758.547 217.892C744.768 221.567 733.285 224.782 732.826 224.782C731.907 224.782 731.448 216.974 731.448 207.788C731.448 198.601 727.773 187.118 723.64 182.066C715.831 172.88 715.831 172.88 726.855 176.095C733.285 177.473 755.792 180.229 777.379 181.607C798.967 182.985 825.148 184.822 836.172 186.2L855.463 188.496V358.442V527.929H733.745C666.685 527.929 612.026 526.092 612.026 524.255C612.026 518.284 636.37 506.341 661.632 500.37C676.33 497.155 706.645 495.318 737.419 496.236L788.862 498.074L790.24 462.247C791.618 430.095 790.699 426.421 783.35 427.799C776.92 428.717 774.623 434.688 772.786 451.683L770.49 473.73L717.669 474.649C657.039 476.027 631.318 481.998 604.218 501.289L584.927 515.528L562.88 501.289C532.106 481.538 507.303 476.027 448.051 475.567L396.149 475.108V434.688C396.149 399.321 395.23 394.728 387.881 394.728C380.992 394.728 380.073 397.484 381.451 410.804C382.829 420.909 381.451 426.88 378.236 426.88C374.561 426.88 373.183 437.904 374.102 462.247L375.48 497.614L439.784 498.074C506.384 498.992 530.269 503.126 548.641 518.743C559.205 527.47 558.746 527.929 435.191 526.551L311.176 525.633L310.257 362.576C309.339 270.254 310.717 196.764 313.013 193.089C316.228 188.037 332.764 185.281 373.183 182.985C403.957 181.147 430.598 178.391 431.975 177.013C437.487 171.042 442.999 174.717 439.324 182.066ZM260.192 594.989C264.326 604.175 266.623 612.902 264.785 614.739C262.948 616.117 260.651 614.739 259.733 611.524C258.355 608.768 253.762 606.012 249.169 606.012C244.575 606.012 239.982 608.768 238.604 611.524C237.686 614.739 235.389 616.117 233.552 614.739C229.877 611.524 243.198 578.454 248.25 578.454C250.547 578.454 255.599 585.803 260.192 594.989ZM297.397 583.047C299.234 585.803 295.559 587.181 289.588 586.262C281.78 585.803 278.565 588.099 277.646 596.367C276.268 606.012 277.187 606.931 288.21 604.175C297.397 601.879 300.152 602.797 298.774 606.931C293.722 621.629 267.541 613.361 267.541 597.286C267.541 582.128 290.048 571.564 297.397 583.047ZM328.63 581.669C325.415 582.587 322.659 590.855 322.659 599.582C322.659 608.309 320.822 615.199 318.066 615.199C315.769 615.199 313.473 608.309 313.473 599.582C313.473 590.855 310.717 582.587 307.961 581.669C304.746 580.291 309.339 579.372 318.066 579.372C326.793 579.372 331.386 580.291 328.63 581.669ZM365.375 584.884C368.131 592.233 360.323 601.419 351.596 601.419C348.38 601.419 345.624 604.635 345.624 608.309C345.624 611.984 343.787 615.199 341.031 615.199C338.735 615.199 336.438 606.931 336.438 596.826C336.438 579.832 337.357 578.454 349.758 578.454C357.107 578.454 363.997 581.21 365.375 584.884ZM394.312 595.448C401.201 611.984 401.661 612.443 408.091 604.175C412.225 598.204 413.144 593.611 409.928 590.396C402.12 582.587 404.876 579.832 418.655 579.832C430.138 579.832 431.516 581.21 428.301 587.64C425.545 593.152 426.004 598.663 430.598 604.175C436.569 612.443 437.028 612.443 441.621 600.041C444.377 592.692 446.673 584.884 446.673 582.587C446.673 571.564 460.453 580.291 466.424 595.448C474.692 616.117 473.773 617.955 460.453 609.687C452.185 605.094 449.429 605.094 448.051 609.228C445.296 616.577 431.975 617.036 424.626 609.687C420.493 605.553 417.737 605.553 413.603 609.687C406.713 616.577 391.556 617.036 391.556 610.606C391.556 604.175 374.102 605.094 371.805 611.524C370.887 614.739 368.59 616.117 366.753 614.739C362.619 611.065 376.858 578.454 382.37 578.454C384.666 578.454 390.178 586.262 394.312 595.448ZM486.174 585.343C484.797 589.477 486.174 592.233 490.308 592.233C493.983 592.233 497.198 589.018 497.198 585.343C497.198 581.669 499.495 578.454 501.791 578.454C504.547 578.454 506.384 586.721 506.384 597.286C506.384 608.309 504.547 614.739 501.791 612.902C499.495 611.524 497.198 606.931 497.198 603.257C497.198 599.123 494.442 596.826 491.686 597.745C488.471 599.123 485.715 602.338 485.715 604.635C485.715 607.39 484.337 611.524 482.5 613.361C480.203 615.199 478.825 608.309 478.825 597.745C478.825 586.721 481.122 578.454 483.878 578.454C486.634 578.454 488.012 581.669 486.174 585.343ZM543.129 583.506C543.129 586.262 539.455 587.181 534.402 585.343C528.891 583.965 524.757 585.343 522.92 590.396C518.786 601.419 524.298 606.931 537.618 603.716C547.723 601.419 548.641 601.879 543.589 607.85C529.35 624.844 505.006 607.39 515.571 587.64C520.623 577.994 543.129 574.779 543.129 583.506ZM561.502 586.262C561.961 594.07 561.961 594.07 566.554 586.262C568.851 582.128 573.444 578.454 576.2 578.454C579.415 578.454 578.956 581.21 575.281 585.343C570.688 590.855 570.688 594.989 574.363 603.716C580.334 616.577 573.444 619.333 566.554 606.931C561.961 599.582 561.961 599.582 561.502 606.931C561.502 611.524 559.665 615.199 556.909 615.199C554.612 615.199 552.316 606.931 552.316 596.826C552.316 586.721 554.612 578.454 556.909 578.454C559.665 578.454 561.502 582.128 561.502 586.262ZM591.357 588.559L589.52 599.123L598.247 588.559C610.189 574.32 612.026 575.698 611.567 597.745C611.108 613.821 610.648 615.199 607.893 606.012L604.677 594.53L597.788 604.635C588.601 619.792 584.468 617.495 584.468 596.826C584.468 586.721 586.305 578.454 588.601 578.454C591.357 578.454 592.276 583.047 591.357 588.559ZM630.399 586.262C630.858 593.611 631.318 593.611 637.289 585.803C640.963 580.75 645.097 577.994 646.475 579.372C651.068 583.965 652.905 610.606 648.312 612.902C646.016 614.739 644.178 610.146 644.178 602.797L643.719 589.936L635.911 602.338C625.347 619.792 621.213 618.414 621.213 596.826C621.213 579.372 630.399 569.267 630.399 586.262ZM680.923 586.262C681.383 594.07 681.383 594.07 685.976 586.262C688.272 582.128 692.406 578.454 695.162 578.454C697.459 578.454 696.999 582.587 693.784 587.181C689.65 594.07 689.65 597.745 694.703 603.257C697.918 607.39 699.296 611.984 697.459 613.821C696.081 615.658 691.488 612.902 687.813 607.85C681.842 600.041 681.383 600.041 680.923 606.931C680.923 624.385 671.737 614.28 671.737 596.826C671.737 586.721 674.034 578.454 676.33 578.454C679.086 578.454 680.923 582.128 680.923 586.262ZM736.041 585.343C740.634 590.855 740.634 594.989 736.96 603.716C731.448 615.199 724.558 617.495 711.238 612.443C703.889 609.687 701.133 587.64 707.104 581.669C712.616 576.157 730.07 578.454 736.041 585.343ZM772.786 596.826C772.786 606.931 770.949 615.199 768.193 615.199C765.897 615.199 763.6 607.85 763.6 599.123C763.6 590.396 761.763 583.047 759.007 583.047C756.71 583.047 754.414 589.018 754.414 596.367C754.414 604.175 752.117 611.524 749.361 612.902C742.472 617.495 741.553 614.739 744.309 595.448C746.146 580.291 747.524 578.454 759.466 578.454C771.868 578.454 772.786 579.832 772.786 596.826ZM809.531 596.826C809.531 606.931 807.694 615.199 804.938 615.199C802.642 615.199 800.345 607.85 800.345 599.123C800.345 590.396 798.508 583.047 795.752 583.047C793.455 583.047 791.159 589.018 791.159 596.367C791.159 604.175 788.862 611.524 786.106 612.902C779.217 617.495 778.298 614.739 781.054 595.448C782.891 580.291 784.269 578.454 796.211 578.454C808.613 578.454 809.531 579.832 809.531 596.826ZM833.875 581.669C827.904 582.587 823.311 585.803 823.311 588.099C823.311 590.396 827.904 592.692 833.875 592.692L843.98 593.611L833.875 595.448C821.014 597.745 820.096 606.012 832.497 606.012C837.549 606.012 841.683 607.85 841.683 610.606C841.683 612.902 835.712 615.199 827.904 615.199C815.043 615.199 814.124 614.28 814.124 596.826C814.124 578.913 814.584 578.454 829.282 578.913C839.846 579.372 841.224 580.291 833.875 581.669ZM878.428 587.181C878.428 591.774 879.806 602.797 881.644 611.065C884.399 625.304 883.94 626.222 877.05 620.251C871.998 616.577 864.649 615.199 857.3 617.036C846.276 619.792 845.358 619.333 848.114 609.687C849.492 603.716 850.87 594.53 850.87 588.559C850.87 580.291 853.625 578.454 864.649 578.454C875.213 578.454 878.428 580.75 878.428 587.181ZM897.26 583.965C897.26 588.559 898.179 588.559 900.016 583.965C903.231 575.698 910.58 577.076 910.58 586.262C911.04 594.07 911.04 594.07 915.633 586.262C917.929 582.128 922.522 578.454 925.278 578.454C928.494 578.454 928.034 580.75 924.819 584.884C920.226 589.936 920.226 594.07 924.36 601.419C931.249 614.28 926.197 619.333 917.47 607.85C911.499 600.041 911.04 600.041 910.58 606.931C910.58 617.495 901.394 617.955 901.394 607.39C901.394 600.501 900.475 600.96 894.504 608.768C888.533 616.577 888.074 616.577 887.615 609.687C887.615 605.553 889.911 600.501 892.667 599.123C895.882 596.826 894.504 592.692 889.452 587.181C882.103 579.372 882.103 578.454 888.993 578.454C893.586 578.454 896.801 581.21 897.26 583.965ZM697.459 650.107C693.325 652.862 690.11 659.293 690.11 663.886C690.11 671.235 691.028 671.235 697.459 662.049C706.645 648.729 713.075 652.862 713.075 673.072C713.075 690.067 703.889 695.119 703.43 678.125V668.02L696.081 678.125C685.517 693.741 680.923 690.986 680.923 670.316C680.923 660.211 683.22 651.944 685.976 651.944C688.272 651.944 689.65 650.107 687.813 647.81C686.435 645.054 689.65 643.676 694.703 644.136C703.43 644.595 703.43 645.513 697.459 650.107ZM220.691 671.235C221.61 688.23 221.61 688.689 205.534 688.689C189.917 688.689 189.458 688.23 189.458 669.857C189.458 651.944 189.917 651.485 204.156 652.862C217.935 654.24 219.313 655.618 220.691 671.235ZM245.953 666.642C252.384 667.561 256.518 671.694 257.436 678.125C258.814 686.852 256.977 688.689 245.494 688.689C228.499 688.689 227.581 687.77 230.337 667.101C231.715 657.456 233.093 653.322 234.011 657.456C235.389 661.589 240.442 665.723 245.953 666.642ZM272.134 670.316C272.134 680.421 270.297 688.689 267.541 688.689C265.245 688.689 262.948 680.421 262.948 670.316C262.948 660.211 265.245 651.944 267.541 651.944C270.297 651.944 272.134 660.211 272.134 670.316ZM295.1 670.316C297.397 670.316 299.693 666.183 299.693 661.13C299.693 656.078 301.99 651.944 304.286 651.944C307.042 651.944 308.879 660.211 308.879 670.316C308.879 680.421 307.042 688.689 304.286 688.689C301.99 688.689 299.693 685.474 299.693 681.799C299.693 678.125 295.559 674.91 290.966 674.91C281.321 674.91 274.89 663.427 279.943 655.159C281.78 652.403 284.536 654.24 286.373 660.211C288.67 665.723 292.344 670.316 295.1 670.316ZM332.304 662.049C341.491 647.351 345.624 649.647 345.624 670.316C345.624 680.881 343.328 688.689 340.572 688.689C337.357 688.689 336.438 684.555 337.816 678.125C340.572 668.02 340.572 668.02 331.386 679.043C320.822 691.904 314.85 687.311 316.228 667.101C317.606 648.729 318.525 648.269 322.199 661.13L325.415 672.613L332.304 662.049ZM380.992 659.293C381.91 662.508 378.236 663.886 370.887 662.508C361.7 660.671 359.404 662.049 359.404 669.398C359.404 682.259 367.212 686.392 376.399 678.584C382.829 673.532 383.748 673.532 381.451 679.503C378.236 689.148 362.16 690.526 354.811 681.799C346.084 671.235 356.189 651.025 369.509 652.862C375.021 653.781 380.073 656.537 380.992 659.293ZM419.115 670.316C419.115 680.421 417.277 688.689 414.522 688.689C412.225 688.689 409.928 682.259 409.928 674.91C409.928 657.915 401.661 656.537 399.824 673.532C397.527 693.741 388.8 690.986 390.637 670.316C392.474 653.322 393.852 651.944 405.795 651.944C418.196 651.944 419.115 653.322 419.115 670.316ZM433.353 662.049V672.613L440.702 662.049C451.267 646.891 455.86 649.647 455.86 670.316C455.86 689.148 447.133 696.957 446.214 678.125V668.02L441.162 678.125C432.894 695.119 423.708 690.986 423.708 670.316C423.708 651.485 432.894 643.676 433.353 662.049ZM488.012 656.537C488.012 658.834 486.174 661.13 483.419 661.13C481.122 661.13 478.825 667.101 478.825 674.91C478.825 682.259 476.988 688.689 474.232 688.689C471.936 688.689 469.639 682.259 469.639 674.91C469.639 667.101 467.802 661.13 465.046 661.13C462.749 661.13 460.453 658.834 460.453 656.537C460.453 653.781 466.883 651.944 474.232 651.944C482.041 651.944 488.012 653.781 488.012 656.537ZM522.46 656.078C519.704 658.374 513.733 661.13 508.681 662.508C500.413 664.345 500.413 664.805 510.059 665.264C522.46 665.723 523.838 674.91 510.977 674.91C505.925 674.91 501.791 677.206 501.791 679.962C501.791 682.718 508.222 684.096 516.948 683.177C528.431 682.259 531.647 679.503 532.106 671.235C532.565 665.723 533.024 658.834 533.484 656.537C533.484 653.781 538.996 651.944 545.426 651.944C555.99 651.944 556.909 653.781 556.909 670.316C556.909 680.421 555.072 688.689 552.316 688.689C550.019 688.689 547.723 682.259 547.723 674.91C547.723 667.101 545.885 661.13 543.129 661.13C540.833 661.13 538.536 667.101 538.536 674.91C538.536 688.23 538.077 688.689 515.571 688.689H492.605V670.316C492.605 652.403 493.064 651.944 509.599 651.944C519.704 651.944 524.757 653.781 522.46 656.078ZM575.281 657.915C575.281 661.13 579.874 665.723 585.846 668.02C601.003 674.91 598.706 685.933 581.252 687.77C566.554 689.148 566.095 688.689 566.095 670.776C566.095 660.211 568.392 651.944 570.688 651.944C573.444 651.944 575.281 654.7 575.281 657.915ZM612.026 658.834C612.026 662.508 615.242 665.723 618.916 665.723C622.591 665.723 625.806 662.508 625.806 658.834C625.806 655.159 628.102 651.944 630.399 651.944C633.155 651.944 634.992 660.211 634.992 670.316C634.992 680.421 633.155 688.689 630.399 688.689C628.102 688.689 625.806 685.474 625.806 681.799C625.806 678.125 622.591 674.91 618.916 674.91C615.242 674.91 612.026 678.125 612.026 681.799C612.026 685.474 610.189 688.689 607.433 688.689C605.137 688.689 602.84 680.421 602.84 670.316C602.84 660.211 605.137 651.944 607.433 651.944C610.189 651.944 612.026 655.159 612.026 658.834ZM673.574 662.049C680.923 673.991 671.737 686.392 655.202 686.392C643.719 686.392 641.423 684.555 640.504 673.072C637.748 651.944 662.092 644.136 673.574 662.049ZM759.007 656.537C759.007 658.834 757.17 661.13 754.414 661.13C752.117 661.13 749.821 667.101 749.821 674.91C749.821 682.259 747.983 688.689 745.227 688.689C742.931 688.689 740.634 682.259 740.634 674.91C740.634 667.101 738.797 661.13 736.041 661.13C733.745 661.13 731.448 658.834 731.448 656.537C731.448 653.781 737.878 651.944 745.227 651.944C753.036 651.944 759.007 653.781 759.007 656.537ZM791.159 656.537C791.159 658.834 786.566 661.589 781.054 661.589L770.49 662.508L781.054 664.345C793.455 666.642 794.374 674.91 781.972 674.91C769.571 674.91 770.49 683.177 783.35 685.474C790.699 686.852 789.322 687.77 778.757 688.23C764.059 688.689 763.6 688.23 763.6 670.316C763.6 652.862 764.519 651.944 777.379 651.944C785.188 651.944 791.159 653.781 791.159 656.537ZM807.694 656.996C809.531 660.671 811.828 660.671 815.502 656.996C823.77 648.729 828.363 651.485 823.311 661.13C819.636 667.561 819.636 673.072 823.311 679.503C828.363 689.148 821.933 692.823 815.962 683.636C814.124 679.962 811.828 679.962 808.153 683.636C799.886 691.904 795.293 689.148 800.345 679.503C804.02 673.072 804.02 667.561 800.345 661.13C795.293 651.485 801.723 647.81 807.694 656.996ZM841.683 658.834C841.683 662.508 844.898 665.723 848.573 665.723C852.247 665.723 855.463 662.508 855.463 658.834C855.463 655.159 857.759 651.944 860.056 651.944C862.812 651.944 864.649 660.211 864.649 670.316C864.649 680.421 862.812 688.689 860.056 688.689C857.759 688.689 855.463 685.474 855.463 681.799C855.463 678.125 852.247 674.91 848.573 674.91C844.898 674.91 841.683 678.125 841.683 681.799C841.683 685.474 839.846 688.689 837.09 688.689C834.794 688.689 832.497 680.421 832.497 670.316C832.497 660.211 834.794 651.944 837.09 651.944C839.846 651.944 841.683 655.159 841.683 658.834ZM878.888 662.049V672.613L886.237 662.049C896.801 646.891 901.394 649.647 901.394 670.316C901.394 680.421 899.557 688.689 896.801 688.689C894.504 688.689 892.208 684.096 892.208 678.584V668.479L884.859 678.584C874.295 693.741 869.242 690.986 869.242 670.316C869.242 651.485 878.428 643.676 878.888 662.049ZM915.173 659.752C915.633 667.101 916.092 667.101 922.063 659.293C925.738 654.24 930.331 651.485 931.709 653.322C933.546 655.159 932.168 659.293 928.953 663.427C924.36 668.938 924.36 671.694 928.953 677.206C932.168 681.34 933.546 685.474 931.709 687.311C930.331 689.148 925.738 686.392 922.063 681.34C916.092 673.532 915.633 673.532 915.173 680.421C915.173 697.875 905.987 687.77 905.987 670.316C905.987 652.862 915.173 642.758 915.173 659.752ZM947.785 662.049V672.613L955.134 662.049C965.698 646.891 970.291 649.647 970.291 670.316C970.291 680.421 968.454 688.689 965.698 688.689C963.401 688.689 961.105 684.096 961.105 678.584V668.479L953.756 678.584C943.192 693.741 938.139 690.986 938.139 670.316C938.139 651.485 947.325 643.676 947.785 662.049ZM742.472 735.08C737.419 743.347 657.958 794.331 619.835 813.163L584.008 831.535L563.339 822.349C527.972 806.273 419.115 738.295 419.115 731.864C419.115 730.946 492.605 730.027 582.63 730.027C699.755 730.027 744.768 731.405 742.472 735.08Z" fill="#053160"/>
<path d="M388.341 295.516C381.451 299.65 379.614 302.865 382.829 306.08C386.044 309.296 380.073 326.75 363.078 362.117L338.275 413.101H354.351C368.59 413.101 369.509 412.641 362.16 407.13C355.27 402.077 354.351 399.321 358.945 391.054C363.538 382.327 368.131 380.949 391.556 380.949C414.521 380.949 419.574 382.327 423.708 390.594C427.842 397.484 427.382 401.618 423.248 406.67C418.655 412.182 421.87 413.101 444.836 413.101H471.017L461.831 402.536C456.778 397.025 441.621 369.006 428.301 340.529C414.981 312.511 402.579 289.086 401.201 289.545C399.823 290.005 393.852 292.301 388.341 295.516ZM403.039 345.122L414.521 369.466L393.393 370.844C381.91 371.762 371.346 371.303 370.427 370.384C368.59 368.547 387.881 321.697 390.637 321.238C391.556 321.238 397.068 332.261 403.039 345.122Z" fill="#9B363A"/>
<path d="M548.641 303.325C525.675 344.663 510.977 351.093 510.977 319.401C510.977 307.458 513.274 298.272 516.949 296.894C519.704 295.516 510.977 294.598 497.198 294.598C483.419 294.598 474.692 295.516 477.907 296.894C482.041 298.272 483.419 314.348 483.419 353.39C483.419 392.431 482.041 408.507 477.907 409.885C474.692 411.263 483.419 412.182 497.198 412.182C510.977 412.182 519.704 411.263 516.949 409.885C508.222 406.67 508.681 348.797 517.408 348.797C526.594 348.797 535.321 361.198 543.129 384.623C550.478 407.589 567.932 421.368 581.712 416.316C589.061 413.56 589.061 412.182 580.334 401.618C575.281 395.187 569.77 383.245 568.392 375.896C566.095 366.71 559.665 358.442 549.56 352.471L534.402 343.744L548.641 327.668C558.746 316.645 565.636 312.97 571.607 314.807C578.497 316.645 579.874 314.807 579.874 303.325C579.874 290.923 578.037 289.086 568.392 289.086C559.665 289.086 554.153 293.22 548.641 303.325Z" fill="#9B363A"/>
<path d="M717.668 304.243V317.104L730.989 306.999C738.338 301.947 747.983 298.272 752.576 299.191C760.385 300.569 761.303 306.081 762.681 347.419C763.6 375.437 762.222 397.943 759.007 403.455C754.414 412.641 755.332 413.101 776.001 412.641C787.943 412.641 795.292 411.263 792.537 409.886C787.943 408.508 786.566 392.432 786.566 352.931C786.566 298.732 786.566 298.272 797.13 298.272C803.101 298.272 812.287 302.406 817.799 307.459C830.66 319.401 832.497 318.941 832.497 303.784V291.383H775.083H717.668V304.243Z" fill="#9B363A"/>
<path d="M612.026 302.406C614.323 307.458 616.619 330.424 616.619 353.39C616.619 376.355 614.323 399.321 612.026 404.374C607.433 412.641 608.811 413.101 645.097 413.101C690.11 413.101 703.889 406.67 703.889 385.082C703.889 370.844 690.11 353.39 679.086 353.39C674.952 353.39 677.708 348.337 685.976 339.61C696.54 329.046 699.296 323.534 696.999 315.726C691.488 297.813 681.383 293.679 643.26 293.679C608.811 293.679 607.433 294.138 612.026 302.406ZM659.795 302.865C668.522 306.08 671.737 310.674 671.737 319.86C671.737 336.855 667.144 342.826 651.987 346.5L639.585 349.715V323.994C639.585 296.894 640.963 295.516 659.795 302.865ZM666.225 360.739C686.435 374.978 673.574 408.507 647.853 408.507C640.963 408.507 639.585 404.374 639.585 380.949C639.585 350.634 645.556 346.041 666.225 360.739Z" fill="#9B363A"/>
<path d="M593.654 323.994C593.654 334.558 592.276 335.936 582.171 334.099C567.473 330.884 563.339 337.314 572.066 350.175C575.741 355.687 580.793 368.088 584.008 377.274C593.195 405.752 598.247 397.484 598.247 353.39C598.247 330.425 597.328 312.052 595.951 312.052C594.573 312.052 593.654 317.564 593.654 323.994Z" fill="#113860"/>
<path d="M710.779 349.715C714.913 369.007 714.913 397.484 710.779 415.857C707.564 430.095 707.105 430.555 673.575 433.311C655.202 435.148 630.399 439.282 618.916 442.497C598.707 448.927 598.247 448.468 598.247 438.822C598.247 430.095 596.41 429.177 582.171 430.555C570.688 431.933 566.095 434.689 566.095 440.66C566.095 448.468 564.717 448.468 544.967 442.497C517.867 434.229 441.162 426.421 436.11 431.473C433.813 433.311 432.894 438.822 433.813 443.415C435.191 450.764 441.162 452.602 476.529 454.898C522.001 457.654 569.77 470.056 573.444 479.242C575.741 485.213 589.061 487.51 589.061 481.539C589.061 472.352 644.179 457.654 686.895 455.358L731.448 453.061V394.269V335.017H719.506C708.483 335.017 707.564 335.936 710.779 349.715Z" fill="#113860"/>
<path d="M716.291 585.803C709.401 592.692 713.075 606.472 721.343 605.094C725.477 604.175 729.151 599.582 729.151 594.989C729.151 585.803 721.802 580.75 716.291 585.803Z" fill="#09315F"/>
<path d="M860.056 594.53C860.056 600.96 862.352 606.013 864.649 606.013C867.405 606.013 869.242 600.96 869.242 594.53C869.242 588.099 867.405 583.047 864.649 583.047C862.352 583.047 860.056 588.099 860.056 594.53Z" fill="#09315F"/>
<path d="M202.319 680.421C206.453 684.555 209.208 684.555 213.342 680.421C217.476 676.287 216.557 674.909 207.831 674.909C199.104 674.909 198.185 676.287 202.319 680.421Z" fill="#053160"/>
<path d="M239.064 680.421C243.198 684.555 245.954 684.555 250.087 680.421C254.221 676.287 253.303 674.909 244.576 674.909C235.849 674.909 234.93 676.287 239.064 680.421Z" fill="#053160"/>
<path d="M648.771 669.398C648.771 680.421 652.446 684.096 660.714 680.88C670.819 677.206 668.522 661.13 657.958 661.13C651.987 661.13 648.771 664.345 648.771 669.398Z" fill="#09315F"/>
<rect x="185" y="542" width="797" height="170" fill="#053160"/>
<path d="M237.68 609.45C236.747 609.45 235.98 609.233 235.38 608.8C234.813 608.367 234.447 607.783 234.28 607.05C234.147 606.317 234.297 605.5 234.73 604.6L247.53 576.55C248.063 575.417 248.697 574.6 249.43 574.1C250.163 573.567 251.013 573.3 251.98 573.3C252.947 573.3 253.797 573.567 254.53 574.1C255.263 574.6 255.88 575.417 256.38 576.55L269.28 604.6C269.713 605.5 269.863 606.333 269.73 607.1C269.63 607.833 269.297 608.417 268.73 608.85C268.163 609.25 267.43 609.45 266.53 609.45C265.397 609.45 264.513 609.183 263.88 608.65C263.28 608.117 262.747 607.283 262.28 606.15L259.28 599.2L262.38 601.35H241.53L244.63 599.2L241.68 606.15C241.18 607.317 240.647 608.167 240.08 608.7C239.547 609.2 238.747 609.45 237.68 609.45ZM251.88 582L245.48 597.25L244.13 595.3H259.78L258.43 597.25L251.98 582H251.88ZM290.303 609.55C286.503 609.55 283.253 608.8 280.553 607.3C277.853 605.8 275.77 603.7 274.303 601C272.87 598.267 272.153 595.05 272.153 591.35C272.153 588.583 272.553 586.1 273.353 583.9C274.187 581.667 275.387 579.767 276.953 578.2C278.52 576.6 280.42 575.367 282.653 574.5C284.92 573.633 287.47 573.2 290.303 573.2C291.97 573.2 293.653 573.417 295.353 573.85C297.087 574.25 298.587 574.833 299.853 575.6C300.687 576.067 301.253 576.65 301.553 577.35C301.853 578.05 301.937 578.75 301.803 579.45C301.703 580.15 301.42 580.75 300.953 581.25C300.52 581.75 299.97 582.067 299.303 582.2C298.637 582.333 297.887 582.183 297.053 581.75C296.053 581.15 295.003 580.717 293.903 580.45C292.803 580.183 291.687 580.05 290.553 580.05C288.32 580.05 286.437 580.5 284.903 581.4C283.403 582.267 282.27 583.533 281.503 585.2C280.737 586.867 280.353 588.917 280.353 591.35C280.353 593.75 280.737 595.8 281.503 597.5C282.27 599.2 283.403 600.5 284.903 601.4C286.437 602.267 288.32 602.7 290.553 602.7C291.62 602.7 292.703 602.567 293.803 602.3C294.937 602.033 296.02 601.617 297.053 601.05C297.92 600.617 298.687 600.467 299.353 600.6C300.053 600.7 300.62 601 301.053 601.5C301.52 601.967 301.803 602.533 301.903 603.2C302.037 603.867 301.97 604.533 301.703 605.2C301.437 605.867 300.937 606.433 300.203 606.9C298.97 607.733 297.453 608.383 295.653 608.85C293.853 609.317 292.07 609.55 290.303 609.55ZM319.195 609.45C317.928 609.45 316.961 609.1 316.295 608.4C315.628 607.7 315.295 606.717 315.295 605.45V580.15H306.445C305.411 580.15 304.611 579.867 304.045 579.3C303.478 578.733 303.195 577.95 303.195 576.95C303.195 575.917 303.478 575.133 304.045 574.6C304.611 574.033 305.411 573.75 306.445 573.75H331.895C332.928 573.75 333.728 574.033 334.295 574.6C334.861 575.133 335.145 575.917 335.145 576.95C335.145 577.95 334.861 578.733 334.295 579.3C333.728 579.867 332.928 580.15 331.895 580.15H323.045V605.45C323.045 606.717 322.711 607.7 322.045 608.4C321.411 609.1 320.461 609.45 319.195 609.45ZM342.387 609.45C341.12 609.45 340.153 609.1 339.487 608.4C338.82 607.7 338.487 606.717 338.487 605.45V577.7C338.487 576.4 338.82 575.417 339.487 574.75C340.187 574.083 341.17 573.75 342.437 573.75H354.587C358.52 573.75 361.553 574.75 363.687 576.75C365.82 578.717 366.887 581.467 366.887 585C366.887 588.533 365.82 591.3 363.687 593.3C361.553 595.3 358.52 596.3 354.587 596.3H346.237V605.45C346.237 606.717 345.903 607.7 345.237 608.4C344.603 609.1 343.653 609.45 342.387 609.45ZM346.237 590.3H353.287C355.287 590.3 356.803 589.85 357.837 588.95C358.903 588.05 359.437 586.733 359.437 585C359.437 583.267 358.903 581.967 357.837 581.1C356.803 580.233 355.287 579.8 353.287 579.8H346.237V590.3ZM368.93 609.45C367.997 609.45 367.23 609.233 366.63 608.8C366.063 608.367 365.697 607.783 365.53 607.05C365.397 606.317 365.547 605.5 365.98 604.6L378.78 576.55C379.313 575.417 379.947 574.6 380.68 574.1C381.413 573.567 382.263 573.3 383.23 573.3C384.197 573.3 385.047 573.567 385.78 574.1C386.513 574.6 387.13 575.417 387.63 576.55L400.53 604.6C400.963 605.5 401.113 606.333 400.98 607.1C400.88 607.833 400.547 608.417 399.98 608.85C399.413 609.25 398.68 609.45 397.78 609.45C396.647 609.45 395.763 609.183 395.13 608.65C394.53 608.117 393.997 607.283 393.53 606.15L390.53 599.2L393.63 601.35H372.78L375.88 599.2L372.93 606.15C372.43 607.317 371.897 608.167 371.33 608.7C370.797 609.2 369.997 609.45 368.93 609.45ZM383.13 582L376.73 597.25L375.38 595.3H391.03L389.68 597.25L383.23 582H383.13ZM407.044 609.45C406.044 609.45 405.211 609.183 404.544 608.65C403.911 608.083 403.544 607.4 403.444 606.6C403.344 605.767 403.611 604.917 404.244 604.05L415.294 589.4V592.85L404.694 578.75C404.061 577.85 403.777 577 403.844 576.2C403.944 575.367 404.311 574.683 404.944 574.15C405.611 573.583 406.427 573.3 407.394 573.3C408.227 573.3 408.944 573.5 409.544 573.9C410.177 574.3 410.811 574.933 411.444 575.8L419.694 587.2H417.194L425.394 575.8C426.027 574.9 426.661 574.267 427.294 573.9C427.927 573.5 428.661 573.3 429.494 573.3C430.494 573.3 431.311 573.567 431.944 574.1C432.611 574.633 432.977 575.317 433.044 576.15C433.144 576.95 432.861 577.817 432.194 578.75L421.544 592.85V589.4L432.544 604.05C433.211 604.917 433.494 605.767 433.394 606.6C433.327 607.4 432.961 608.083 432.294 608.65C431.661 609.183 430.827 609.45 429.794 609.45C428.994 609.45 428.277 609.25 427.644 608.85C427.044 608.45 426.411 607.8 425.744 606.9L417.144 595.05H419.694L411.094 606.9C410.461 607.8 409.827 608.45 409.194 608.85C408.561 609.25 407.844 609.45 407.044 609.45ZM439.34 609.45C438.407 609.45 437.64 609.233 437.04 608.8C436.473 608.367 436.107 607.783 435.94 607.05C435.807 606.317 435.957 605.5 436.39 604.6L449.19 576.55C449.723 575.417 450.357 574.6 451.09 574.1C451.823 573.567 452.673 573.3 453.64 573.3C454.607 573.3 455.457 573.567 456.19 574.1C456.923 574.6 457.54 575.417 458.04 576.55L470.94 604.6C471.373 605.5 471.523 606.333 471.39 607.1C471.29 607.833 470.957 608.417 470.39 608.85C469.823 609.25 469.09 609.45 468.19 609.45C467.057 609.45 466.173 609.183 465.54 608.65C464.94 608.117 464.407 607.283 463.94 606.15L460.94 599.2L464.04 601.35H443.19L446.29 599.2L443.34 606.15C442.84 607.317 442.307 608.167 441.74 608.7C441.207 609.2 440.407 609.45 439.34 609.45ZM453.54 582L447.14 597.25L445.79 595.3H461.44L460.09 597.25L453.64 582H453.54ZM479.887 609.45C478.62 609.45 477.653 609.1 476.987 608.4C476.32 607.7 475.987 606.717 475.987 605.45V577.3C475.987 576.033 476.32 575.05 476.987 574.35C477.653 573.65 478.62 573.3 479.887 573.3C481.12 573.3 482.07 573.65 482.737 574.35C483.403 575.05 483.737 576.033 483.737 577.3V587.9H500.137V577.3C500.137 576.033 500.47 575.05 501.137 574.35C501.803 573.65 502.753 573.3 503.987 573.3C505.253 573.3 506.22 573.65 506.887 574.35C507.553 575.05 507.887 576.033 507.887 577.3V605.45C507.887 606.717 507.553 607.7 506.887 608.4C506.22 609.1 505.253 609.45 503.987 609.45C502.753 609.45 501.803 609.1 501.137 608.4C500.47 607.7 500.137 606.717 500.137 605.45V594.35H483.737V605.45C483.737 606.717 483.403 607.7 482.737 608.4C482.103 609.1 481.153 609.45 479.887 609.45ZM532.1 609.55C528.3 609.55 525.05 608.8 522.35 607.3C519.65 605.8 517.567 603.7 516.1 601C514.667 598.267 513.95 595.05 513.95 591.35C513.95 588.583 514.35 586.1 515.15 583.9C515.984 581.667 517.184 579.767 518.75 578.2C520.317 576.6 522.217 575.367 524.45 574.5C526.717 573.633 529.267 573.2 532.1 573.2C533.767 573.2 535.45 573.417 537.15 573.85C538.884 574.25 540.384 574.833 541.65 575.6C542.484 576.067 543.05 576.65 543.35 577.35C543.65 578.05 543.734 578.75 543.6 579.45C543.5 580.15 543.217 580.75 542.75 581.25C542.317 581.75 541.767 582.067 541.1 582.2C540.434 582.333 539.684 582.183 538.85 581.75C537.85 581.15 536.8 580.717 535.7 580.45C534.6 580.183 533.484 580.05 532.35 580.05C530.117 580.05 528.234 580.5 526.7 581.4C525.2 582.267 524.067 583.533 523.3 585.2C522.534 586.867 522.15 588.917 522.15 591.35C522.15 593.75 522.534 595.8 523.3 597.5C524.067 599.2 525.2 600.5 526.7 601.4C528.234 602.267 530.117 602.7 532.35 602.7C533.417 602.7 534.5 602.567 535.6 602.3C536.734 602.033 537.817 601.617 538.85 601.05C539.717 600.617 540.484 600.467 541.15 600.6C541.85 600.7 542.417 601 542.85 601.5C543.317 601.967 543.6 602.533 543.7 603.2C543.834 603.867 543.767 604.533 543.5 605.2C543.234 605.867 542.734 606.433 542 606.9C540.767 607.733 539.25 608.383 537.45 608.85C535.65 609.317 533.867 609.55 532.1 609.55ZM553.08 609.45C551.813 609.45 550.847 609.1 550.18 608.4C549.513 607.7 549.18 606.717 549.18 605.45V577.25C549.18 575.983 549.513 575.017 550.18 574.35C550.847 573.65 551.813 573.3 553.08 573.3C554.313 573.3 555.263 573.65 555.93 574.35C556.597 575.017 556.93 575.983 556.93 577.25V588.3H561.93L560.63 589.15L569.18 575.3C569.713 574.467 570.347 573.9 571.08 573.6C571.847 573.3 572.58 573.233 573.28 573.4C574.013 573.567 574.63 573.917 575.13 574.45C575.663 574.983 575.963 575.633 576.03 576.4C576.13 577.167 575.897 578 575.33 578.9L567.68 590.7L564.58 588.55C566.847 588.95 568.73 589.767 570.23 591C571.763 592.233 573.097 594 574.23 596.3L577.93 603.9C578.463 604.933 578.63 605.85 578.43 606.65C578.263 607.45 577.863 608.083 577.23 608.55C576.597 609.017 575.88 609.283 575.08 609.35C574.313 609.45 573.547 609.317 572.78 608.95C572.047 608.55 571.48 607.883 571.08 606.95L567.38 599C566.647 597.433 565.763 596.333 564.73 595.7C563.73 595.033 562.447 594.7 560.88 594.7H556.93V605.45C556.93 606.717 556.597 607.7 555.93 608.4C555.297 609.1 554.347 609.45 553.08 609.45ZM587.246 609.45C586.746 609.45 586.279 609.367 585.846 609.2C585.446 609.033 585.096 608.783 584.796 608.45C584.529 608.117 584.312 607.717 584.146 607.25C584.012 606.75 583.946 606.183 583.946 605.55V577C583.946 575.833 584.246 574.933 584.846 574.3C585.479 573.633 586.379 573.3 587.546 573.3C588.746 573.3 589.646 573.633 590.246 574.3C590.846 574.933 591.146 575.833 591.146 577V597.9H589.896L607.346 575.55C607.946 574.75 608.529 574.183 609.096 573.85C609.662 573.483 610.412 573.3 611.346 573.3C611.979 573.3 612.529 573.45 612.996 573.75C613.462 574.05 613.829 574.467 614.096 575C614.362 575.533 614.496 576.15 614.496 576.85V605.7C614.496 606.9 614.179 607.833 613.546 608.5C612.946 609.133 612.062 609.45 610.896 609.45C609.729 609.45 608.829 609.133 608.196 608.5C607.596 607.833 607.296 606.9 607.296 605.7V584.8H608.496L591.096 607.15C590.462 607.95 589.879 608.533 589.346 608.9C588.846 609.267 588.146 609.45 587.246 609.45ZM624.892 609.45C624.392 609.45 623.925 609.367 623.492 609.2C623.092 609.033 622.742 608.783 622.442 608.45C622.175 608.117 621.959 607.717 621.792 607.25C621.659 606.75 621.592 606.183 621.592 605.55V577C621.592 575.833 621.892 574.933 622.492 574.3C623.125 573.633 624.025 573.3 625.192 573.3C626.392 573.3 627.292 573.633 627.892 574.3C628.492 574.933 628.792 575.833 628.792 577V597.9H627.542L644.992 575.55C645.592 574.75 646.175 574.183 646.742 573.85C647.309 573.483 648.059 573.3 648.992 573.3C649.625 573.3 650.175 573.45 650.642 573.75C651.109 574.05 651.475 574.467 651.742 575C652.009 575.533 652.142 576.15 652.142 576.85V605.7C652.142 606.9 651.825 607.833 651.192 608.5C650.592 609.133 649.709 609.45 648.542 609.45C647.375 609.45 646.475 609.133 645.842 608.5C645.242 607.833 644.942 606.9 644.942 605.7V584.8H646.142L628.742 607.15C628.109 607.95 627.525 608.533 626.992 608.9C626.492 609.267 625.792 609.45 624.892 609.45ZM636.842 571C634.375 571 632.325 570.5 630.692 569.5C629.092 568.5 627.925 567.167 627.192 565.5C626.859 564.8 626.825 564.217 627.092 563.75C627.359 563.25 627.775 562.9 628.342 562.7C628.942 562.5 629.442 562.533 629.842 562.8C630.275 563.033 630.709 563.467 631.142 564.1C631.709 565.067 632.459 565.8 633.392 566.3C634.359 566.767 635.525 567 636.892 567C638.259 567 639.409 566.767 640.342 566.3C641.309 565.8 642.075 565.067 642.642 564.1C643.075 563.467 643.492 563.033 643.892 562.8C644.325 562.533 644.842 562.5 645.442 562.7C646.009 562.9 646.409 563.233 646.642 563.7C646.909 564.167 646.875 564.767 646.542 565.5C645.742 567.167 644.525 568.5 642.892 569.5C641.292 570.5 639.275 571 636.842 571ZM677.103 609.45C675.837 609.45 674.87 609.1 674.203 608.4C673.537 607.7 673.203 606.717 673.203 605.45V577.25C673.203 575.983 673.537 575.017 674.203 574.35C674.87 573.65 675.837 573.3 677.103 573.3C678.337 573.3 679.287 573.65 679.953 574.35C680.62 575.017 680.953 575.983 680.953 577.25V588.3H685.953L684.653 589.15L693.203 575.3C693.737 574.467 694.37 573.9 695.103 573.6C695.87 573.3 696.603 573.233 697.303 573.4C698.037 573.567 698.653 573.917 699.153 574.45C699.687 574.983 699.987 575.633 700.053 576.4C700.153 577.167 699.92 578 699.353 578.9L691.703 590.7L688.603 588.55C690.87 588.95 692.753 589.767 694.253 591C695.787 592.233 697.12 594 698.253 596.3L701.953 603.9C702.487 604.933 702.653 605.85 702.453 606.65C702.287 607.45 701.887 608.083 701.253 608.55C700.62 609.017 699.903 609.283 699.103 609.35C698.337 609.45 697.57 609.317 696.803 608.95C696.07 608.55 695.503 607.883 695.103 606.95L691.403 599C690.67 597.433 689.787 596.333 688.753 595.7C687.753 595.033 686.47 594.7 684.903 594.7H680.953V605.45C680.953 606.717 680.62 607.7 679.953 608.4C679.32 609.1 678.37 609.45 677.103 609.45ZM723.489 609.55C720.022 609.55 716.972 608.8 714.339 607.3C711.739 605.767 709.706 603.633 708.239 600.9C706.806 598.167 706.089 594.983 706.089 591.35C706.089 588.583 706.489 586.1 707.289 583.9C708.122 581.667 709.306 579.767 710.839 578.2C712.372 576.6 714.206 575.367 716.339 574.5C718.506 573.633 720.889 573.2 723.489 573.2C727.022 573.2 730.089 573.95 732.689 575.45C735.289 576.95 737.306 579.067 738.739 581.8C740.206 584.5 740.939 587.667 740.939 591.3C740.939 594.067 740.522 596.567 739.689 598.8C738.856 601.033 737.672 602.95 736.139 604.55C734.606 606.15 732.772 607.383 730.639 608.25C728.506 609.117 726.122 609.55 723.489 609.55ZM723.489 602.95C725.456 602.95 727.122 602.5 728.489 601.6C729.889 600.667 730.956 599.333 731.689 597.6C732.456 595.833 732.839 593.75 732.839 591.35C732.839 587.683 732.022 584.85 730.389 582.85C728.756 580.817 726.456 579.8 723.489 579.8C721.556 579.8 719.889 580.25 718.489 581.15C717.089 582.05 716.022 583.367 715.289 585.1C714.556 586.833 714.189 588.917 714.189 591.35C714.189 594.983 715.006 597.833 716.639 599.9C718.272 601.933 720.556 602.95 723.489 602.95ZM773.737 609.45C772.471 609.45 771.504 609.1 770.837 608.4C770.171 607.7 769.837 606.717 769.837 605.45V580.15H758.937V586.55C758.937 589.35 758.737 591.883 758.337 594.15C757.937 596.417 757.354 598.467 756.587 600.3C755.821 602.1 754.871 603.7 753.737 605.1C752.637 606.5 751.371 607.7 749.937 608.7C749.071 609.333 748.171 609.567 747.237 609.4C746.337 609.267 745.554 608.767 744.887 607.9C744.221 607 743.987 606.117 744.187 605.25C744.421 604.35 744.971 603.567 745.837 602.9C746.871 602.133 747.754 601.217 748.487 600.15C749.254 599.05 749.871 597.767 750.337 596.3C750.837 594.833 751.204 593.133 751.437 591.2C751.671 589.233 751.787 587.017 751.787 584.55V577.8C751.787 576.5 752.137 575.5 752.837 574.8C753.537 574.1 754.554 573.75 755.887 573.75H773.537C774.871 573.75 775.887 574.1 776.587 574.8C777.287 575.5 777.637 576.5 777.637 577.8V605.45C777.637 606.717 777.304 607.7 776.637 608.4C775.971 609.1 775.004 609.45 773.737 609.45ZM811.628 609.45C810.361 609.45 809.395 609.1 808.728 608.4C808.061 607.7 807.728 606.717 807.728 605.45V580.15H796.828V586.55C796.828 589.35 796.628 591.883 796.228 594.15C795.828 596.417 795.245 598.467 794.478 600.3C793.711 602.1 792.761 603.7 791.628 605.1C790.528 606.5 789.261 607.7 787.828 608.7C786.961 609.333 786.061 609.567 785.128 609.4C784.228 609.267 783.445 608.767 782.778 607.9C782.111 607 781.878 606.117 782.078 605.25C782.311 604.35 782.861 603.567 783.728 602.9C784.761 602.133 785.645 601.217 786.378 600.15C787.145 599.05 787.761 597.767 788.228 596.3C788.728 594.833 789.095 593.133 789.328 591.2C789.561 589.233 789.678 587.017 789.678 584.55V577.8C789.678 576.5 790.028 575.5 790.728 574.8C791.428 574.1 792.445 573.75 793.778 573.75H811.428C812.761 573.75 813.778 574.1 814.478 574.8C815.178 575.5 815.528 576.5 815.528 577.8V605.45C815.528 606.717 815.195 607.7 814.528 608.4C813.861 609.1 812.895 609.45 811.628 609.45ZM826.619 609C825.319 609 824.319 608.65 823.619 607.95C822.919 607.25 822.569 606.25 822.569 604.95V577.8C822.569 576.5 822.919 575.5 823.619 574.8C824.319 574.1 825.319 573.75 826.619 573.75H844.069C845.069 573.75 845.819 574.017 846.319 574.55C846.852 575.05 847.119 575.783 847.119 576.75C847.119 577.75 846.852 578.517 846.319 579.05C845.819 579.55 845.069 579.8 844.069 579.8H829.969V588.05H842.919C843.952 588.05 844.719 588.317 845.219 588.85C845.752 589.35 846.019 590.1 846.019 591.1C846.019 592.1 845.752 592.867 845.219 593.4C844.719 593.9 843.952 594.15 842.919 594.15H829.969V602.95H844.069C845.069 602.95 845.819 603.217 846.319 603.75C846.852 604.25 847.119 604.983 847.119 605.95C847.119 606.95 846.852 607.717 846.319 608.25C845.819 608.75 845.069 609 844.069 609H826.619ZM853.342 617.9C852.209 617.9 851.342 617.6 850.742 617C850.175 616.433 849.892 615.583 849.892 614.45V606.4C849.892 604.067 851.075 602.9 853.442 602.9H856.642L852.342 604.05C854.209 602.317 855.592 599.717 856.492 596.25C857.425 592.783 857.892 588.383 857.892 583.05V577.8C857.892 576.5 858.242 575.5 858.942 574.8C859.642 574.1 860.659 573.75 861.992 573.75H879.692C880.992 573.75 881.992 574.1 882.692 574.8C883.392 575.5 883.742 576.5 883.742 577.8V605.75L880.892 602.9H885.242C886.375 602.9 887.242 603.2 887.842 603.8C888.442 604.4 888.742 605.267 888.742 606.4V614.45C888.742 616.75 887.625 617.9 885.392 617.9C884.292 617.9 883.442 617.6 882.842 617C882.242 616.433 881.942 615.583 881.942 614.45V609H856.742V614.45C856.742 616.75 855.609 617.9 853.342 617.9ZM861.242 602.9H875.942V579.8H865.042V583.8C865.042 588.267 864.725 592.067 864.092 595.2C863.459 598.3 862.509 600.867 861.242 602.9ZM915.869 609.45C914.669 609.45 913.753 609.1 913.119 608.4C912.486 607.7 912.169 606.717 912.169 605.45V594.7H909.369C907.769 594.7 906.453 595.033 905.419 595.7C904.419 596.367 903.553 597.467 902.819 599L899.169 606.95C898.736 607.883 898.136 608.55 897.369 608.95C896.636 609.317 895.869 609.45 895.069 609.35C894.303 609.283 893.603 609.017 892.969 608.55C892.369 608.083 891.969 607.45 891.769 606.65C891.603 605.85 891.769 604.933 892.269 603.9L896.019 596.3C897.119 593.967 898.436 592.2 899.969 591C901.536 589.767 903.436 588.95 905.669 588.55L902.569 590.7L894.919 578.9C894.353 578 894.103 577.167 894.169 576.4C894.269 575.633 894.569 574.983 895.069 574.45C895.603 573.917 896.236 573.567 896.969 573.4C897.703 573.233 898.436 573.3 899.169 573.6C899.936 573.9 900.569 574.467 901.069 575.3L909.619 589.15L908.369 588.3H912.169V577.25C912.169 575.983 912.486 575.017 913.119 574.35C913.786 573.65 914.703 573.3 915.869 573.3C917.069 573.3 917.986 573.65 918.619 574.35C919.253 575.017 919.569 575.983 919.569 577.25V588.3H923.419L922.119 589.15L930.669 575.3C931.203 574.467 931.836 573.9 932.569 573.6C933.303 573.3 934.036 573.233 934.769 573.4C935.503 573.567 936.119 573.917 936.619 574.45C937.153 574.983 937.453 575.633 937.519 576.4C937.619 577.167 937.386 578 936.819 578.9L929.169 590.7L926.069 588.55C927.569 588.817 928.903 589.267 930.069 589.9C931.236 590.533 932.286 591.383 933.219 592.45C934.153 593.483 934.969 594.767 935.669 596.3L939.419 603.9C939.919 604.933 940.086 605.85 939.919 606.65C939.753 607.45 939.353 608.083 938.719 608.55C938.086 609.017 937.369 609.283 936.569 609.35C935.803 609.45 935.036 609.317 934.269 608.95C933.536 608.55 932.953 607.883 932.519 606.95L928.869 599C928.136 597.433 927.253 596.333 926.219 595.7C925.219 595.033 923.936 594.7 922.369 594.7H919.569V605.45C919.569 606.717 919.253 607.7 918.619 608.4C917.986 609.1 917.069 609.45 915.869 609.45ZM208.625 677C207.325 677 206.325 676.65 205.625 675.95C204.925 675.25 204.575 674.25 204.575 672.95V645.8C204.575 644.5 204.925 643.5 205.625 642.8C206.325 642.1 207.325 641.75 208.625 641.75H220.725C223.225 641.75 225.359 642.117 227.125 642.85C228.892 643.583 230.225 644.633 231.125 646C232.059 647.367 232.525 649 232.525 650.9C232.525 653 231.925 654.783 230.725 656.25C229.525 657.717 227.875 658.7 225.775 659.2V658.4C228.209 658.833 230.092 659.8 231.425 661.3C232.792 662.767 233.475 664.683 233.475 667.05C233.475 670.183 232.392 672.633 230.225 674.4C228.059 676.133 225.075 677 221.275 677H208.625ZM211.975 671.25H220.225C222.225 671.25 223.692 670.867 224.625 670.1C225.559 669.3 226.025 668.133 226.025 666.6C226.025 665.067 225.559 663.917 224.625 663.15C223.692 662.383 222.225 662 220.225 662H211.975V671.25ZM211.975 656.25H219.375C221.309 656.25 222.742 655.883 223.675 655.15C224.609 654.417 225.075 653.317 225.075 651.85C225.075 650.417 224.609 649.333 223.675 648.6C222.742 647.867 221.309 647.5 219.375 647.5H211.975V656.25ZM243.391 677C242.091 677 241.091 676.65 240.391 675.95C239.691 675.25 239.341 674.25 239.341 672.95V645.3C239.341 644.033 239.674 643.05 240.341 642.35C241.008 641.65 241.974 641.3 243.241 641.3C244.474 641.3 245.424 641.65 246.091 642.35C246.758 643.05 247.091 644.033 247.091 645.3V655.95H254.541C257.074 655.95 259.241 656.367 261.041 657.2C262.874 658 264.274 659.183 265.241 660.75C266.241 662.283 266.741 664.183 266.741 666.45C266.741 669.85 265.658 672.467 263.491 674.3C261.324 676.1 258.341 677 254.541 677H243.391ZM247.091 671H253.491C255.491 671 256.958 670.633 257.891 669.9C258.824 669.133 259.291 667.983 259.291 666.45C259.291 664.917 258.824 663.783 257.891 663.05C256.958 662.317 255.491 661.95 253.491 661.95H247.091V671ZM274.791 677.45C273.524 677.45 272.558 677.1 271.891 676.4C271.224 675.7 270.891 674.717 270.891 673.45V645.3C270.891 644.033 271.224 643.05 271.891 642.35C272.558 641.65 273.524 641.3 274.791 641.3C276.058 641.3 277.024 641.65 277.691 642.35C278.358 643.05 278.691 644.033 278.691 645.3V673.45C278.691 674.717 278.358 675.7 277.691 676.4C277.058 677.1 276.091 677.45 274.791 677.45ZM310.228 677.45C308.961 677.45 307.994 677.1 307.328 676.4C306.661 675.7 306.328 674.717 306.328 673.45V663.9C305.494 664.267 304.428 664.567 303.128 664.8C301.828 665.033 300.528 665.15 299.228 665.15C296.128 665.15 293.494 664.6 291.328 663.5C289.161 662.4 287.511 660.75 286.378 658.55C285.244 656.317 284.678 653.517 284.678 650.15V645.3C284.678 644.033 285.011 643.05 285.678 642.35C286.344 641.65 287.311 641.3 288.578 641.3C289.811 641.3 290.761 641.65 291.428 642.35C292.094 643.05 292.428 644.033 292.428 645.3V649.85C292.428 652.917 293.078 655.15 294.378 656.55C295.678 657.917 297.594 658.6 300.128 658.6C301.161 658.6 302.228 658.5 303.328 658.3C304.428 658.067 305.428 657.733 306.328 657.3V645.3C306.328 644.033 306.661 643.05 307.328 642.35C307.994 641.65 308.961 641.3 310.228 641.3C311.461 641.3 312.411 641.65 313.078 642.35C313.744 643.05 314.078 644.033 314.078 645.3V673.45C314.078 674.717 313.744 675.7 313.078 676.4C312.444 677.1 311.494 677.45 310.228 677.45ZM324.428 677.45C323.928 677.45 323.461 677.367 323.028 677.2C322.628 677.033 322.278 676.783 321.978 676.45C321.711 676.117 321.495 675.717 321.328 675.25C321.195 674.75 321.128 674.183 321.128 673.55V645C321.128 643.833 321.428 642.933 322.028 642.3C322.661 641.633 323.561 641.3 324.728 641.3C325.928 641.3 326.828 641.633 327.428 642.3C328.028 642.933 328.328 643.833 328.328 645V665.9H327.078L344.528 643.55C345.128 642.75 345.711 642.183 346.278 641.85C346.845 641.483 347.595 641.3 348.528 641.3C349.161 641.3 349.711 641.45 350.178 641.75C350.645 642.05 351.011 642.467 351.278 643C351.545 643.533 351.678 644.15 351.678 644.85V673.7C351.678 674.9 351.361 675.833 350.728 676.5C350.128 677.133 349.245 677.45 348.078 677.45C346.911 677.45 346.011 677.133 345.378 676.5C344.778 675.833 344.478 674.9 344.478 673.7V652.8H345.678L328.278 675.15C327.645 675.95 327.061 676.533 326.528 676.9C326.028 677.267 325.328 677.45 324.428 677.45ZM375.875 677.55C372.075 677.55 368.825 676.8 366.125 675.3C363.425 673.8 361.341 671.7 359.875 669C358.441 666.267 357.725 663.05 357.725 659.35C357.725 656.583 358.125 654.1 358.925 651.9C359.758 649.667 360.958 647.767 362.525 646.2C364.091 644.6 365.991 643.367 368.225 642.5C370.491 641.633 373.041 641.2 375.875 641.2C377.541 641.2 379.225 641.417 380.925 641.85C382.658 642.25 384.158 642.833 385.425 643.6C386.258 644.067 386.825 644.65 387.125 645.35C387.425 646.05 387.508 646.75 387.375 647.45C387.275 648.15 386.991 648.75 386.525 649.25C386.091 649.75 385.541 650.067 384.875 650.2C384.208 650.333 383.458 650.183 382.625 649.75C381.625 649.15 380.575 648.717 379.475 648.45C378.375 648.183 377.258 648.05 376.125 648.05C373.891 648.05 372.008 648.5 370.475 649.4C368.975 650.267 367.841 651.533 367.075 653.2C366.308 654.867 365.925 656.917 365.925 659.35C365.925 661.75 366.308 663.8 367.075 665.5C367.841 667.2 368.975 668.5 370.475 669.4C372.008 670.267 373.891 670.7 376.125 670.7C377.191 670.7 378.275 670.567 379.375 670.3C380.508 670.033 381.591 669.617 382.625 669.05C383.491 668.617 384.258 668.467 384.925 668.6C385.625 668.7 386.191 669 386.625 669.5C387.091 669.967 387.375 670.533 387.475 671.2C387.608 671.867 387.541 672.533 387.275 673.2C387.008 673.867 386.508 674.433 385.775 674.9C384.541 675.733 383.025 676.383 381.225 676.85C379.425 677.317 377.641 677.55 375.875 677.55ZM419.904 677.45C418.638 677.45 417.671 677.1 417.004 676.4C416.338 675.7 416.004 674.717 416.004 673.45V648.15H405.104V654.55C405.104 657.35 404.904 659.883 404.504 662.15C404.104 664.417 403.521 666.467 402.754 668.3C401.988 670.1 401.038 671.7 399.904 673.1C398.804 674.5 397.538 675.7 396.104 676.7C395.238 677.333 394.338 677.567 393.404 677.4C392.504 677.267 391.721 676.767 391.054 675.9C390.388 675 390.154 674.117 390.354 673.25C390.588 672.35 391.138 671.567 392.004 670.9C393.038 670.133 393.921 669.217 394.654 668.15C395.421 667.05 396.038 665.767 396.504 664.3C397.004 662.833 397.371 661.133 397.604 659.2C397.838 657.233 397.954 655.017 397.954 652.55V645.8C397.954 644.5 398.304 643.5 399.004 642.8C399.704 642.1 400.721 641.75 402.054 641.75H419.704C421.038 641.75 422.054 642.1 422.754 642.8C423.454 643.5 423.804 644.5 423.804 645.8V673.45C423.804 674.717 423.471 675.7 422.804 676.4C422.138 677.1 421.171 677.45 419.904 677.45ZM434.145 677.45C433.645 677.45 433.178 677.367 432.745 677.2C432.345 677.033 431.995 676.783 431.695 676.45C431.428 676.117 431.212 675.717 431.045 675.25C430.912 674.75 430.845 674.183 430.845 673.55V645C430.845 643.833 431.145 642.933 431.745 642.3C432.378 641.633 433.278 641.3 434.445 641.3C435.645 641.3 436.545 641.633 437.145 642.3C437.745 642.933 438.045 643.833 438.045 645V665.9H436.795L454.245 643.55C454.845 642.75 455.428 642.183 455.995 641.85C456.562 641.483 457.312 641.3 458.245 641.3C458.878 641.3 459.428 641.45 459.895 641.75C460.362 642.05 460.728 642.467 460.995 643C461.262 643.533 461.395 644.15 461.395 644.85V673.7C461.395 674.9 461.078 675.833 460.445 676.5C459.845 677.133 458.962 677.45 457.795 677.45C456.628 677.45 455.728 677.133 455.095 676.5C454.495 675.833 454.195 674.9 454.195 673.7V652.8H455.395L437.995 675.15C437.362 675.95 436.778 676.533 436.245 676.9C435.745 677.267 435.045 677.45 434.145 677.45ZM480.791 677.45C479.525 677.45 478.558 677.1 477.891 676.4C477.225 675.7 476.891 674.717 476.891 673.45V648.15H468.041C467.008 648.15 466.208 647.867 465.641 647.3C465.075 646.733 464.791 645.95 464.791 644.95C464.791 643.917 465.075 643.133 465.641 642.6C466.208 642.033 467.008 641.75 468.041 641.75H493.491C494.525 641.75 495.325 642.033 495.891 642.6C496.458 643.133 496.741 643.917 496.741 644.95C496.741 645.95 496.458 646.733 495.891 647.3C495.325 647.867 494.525 648.15 493.491 648.15H484.641V673.45C484.641 674.717 484.308 675.7 483.641 676.4C483.008 677.1 482.058 677.45 480.791 677.45ZM504.133 677C502.833 677 501.833 676.65 501.133 675.95C500.433 675.25 500.083 674.25 500.083 672.95V645.8C500.083 644.5 500.433 643.5 501.133 642.8C501.833 642.1 502.833 641.75 504.133 641.75H521.583C522.583 641.75 523.333 642.017 523.833 642.55C524.367 643.05 524.633 643.783 524.633 644.75C524.633 645.75 524.367 646.517 523.833 647.05C523.333 647.55 522.583 647.8 521.583 647.8H507.483V656.05H520.433C521.467 656.05 522.233 656.317 522.733 656.85C523.267 657.35 523.533 658.1 523.533 659.1C523.533 660.1 523.267 660.867 522.733 661.4C522.233 661.9 521.467 662.15 520.433 662.15H507.483V670.95H521.583C522.583 670.95 523.333 671.217 523.833 671.75C524.367 672.25 524.633 672.983 524.633 673.95C524.633 674.95 524.367 675.717 523.833 676.25C523.333 676.75 522.583 677 521.583 677H504.133ZM557.307 677.45C556.04 677.45 555.073 677.1 554.407 676.4C553.74 675.7 553.407 674.717 553.407 673.45V648.15H542.507V654.55C542.507 657.35 542.307 659.883 541.907 662.15C541.507 664.417 540.923 666.467 540.157 668.3C539.39 670.1 538.44 671.7 537.307 673.1C536.207 674.5 534.94 675.7 533.507 676.7C532.64 677.333 531.74 677.567 530.807 677.4C529.907 677.267 529.123 676.767 528.457 675.9C527.79 675 527.557 674.117 527.757 673.25C527.99 672.35 528.54 671.567 529.407 670.9C530.44 670.133 531.323 669.217 532.057 668.15C532.823 667.05 533.44 665.767 533.907 664.3C534.407 662.833 534.773 661.133 535.007 659.2C535.24 657.233 535.357 655.017 535.357 652.55V645.8C535.357 644.5 535.707 643.5 536.407 642.8C537.107 642.1 538.123 641.75 539.457 641.75H557.107C558.44 641.75 559.457 642.1 560.157 642.8C560.857 643.5 561.207 644.5 561.207 645.8V673.45C561.207 674.717 560.873 675.7 560.207 676.4C559.54 677.1 558.573 677.45 557.307 677.45ZM572.297 677C570.997 677 569.997 676.65 569.297 675.95C568.597 675.25 568.247 674.25 568.247 672.95V645.3C568.247 644.033 568.581 643.05 569.247 642.35C569.914 641.65 570.881 641.3 572.147 641.3C573.381 641.3 574.331 641.65 574.997 642.35C575.664 643.05 575.997 644.033 575.997 645.3V655.95H584.947C587.481 655.95 589.647 656.367 591.447 657.2C593.281 658 594.681 659.183 595.647 660.75C596.647 662.283 597.147 664.183 597.147 666.45C597.147 669.85 596.064 672.467 593.897 674.3C591.731 676.1 588.747 677 584.947 677H572.297ZM575.997 671H583.897C585.897 671 587.364 670.633 588.297 669.9C589.231 669.133 589.697 667.983 589.697 666.45C589.697 664.917 589.231 663.783 588.297 663.05C587.364 662.317 585.897 661.95 583.897 661.95H575.997V671ZM606.18 677.45C604.914 677.45 603.947 677.1 603.28 676.4C602.614 675.7 602.28 674.717 602.28 673.45V645.3C602.28 644.033 602.614 643.05 603.28 642.35C603.947 641.65 604.914 641.3 606.18 641.3C607.414 641.3 608.364 641.65 609.03 642.35C609.697 643.05 610.03 644.033 610.03 645.3V655.9H626.43V645.3C626.43 644.033 626.764 643.05 627.43 642.35C628.097 641.65 629.047 641.3 630.28 641.3C631.547 641.3 632.514 641.65 633.18 642.35C633.847 643.05 634.18 644.033 634.18 645.3V673.45C634.18 674.717 633.847 675.7 633.18 676.4C632.514 677.1 631.547 677.45 630.28 677.45C629.047 677.45 628.097 677.1 627.43 676.4C626.764 675.7 626.43 674.717 626.43 673.45V662.35H610.03V673.45C610.03 674.717 609.697 675.7 609.03 676.4C608.397 677.1 607.447 677.45 606.18 677.45ZM657.644 677.55C654.177 677.55 651.127 676.8 648.494 675.3C645.894 673.767 643.861 671.633 642.394 668.9C640.961 666.167 640.244 662.983 640.244 659.35C640.244 656.583 640.644 654.1 641.444 651.9C642.277 649.667 643.461 647.767 644.994 646.2C646.527 644.6 648.361 643.367 650.494 642.5C652.661 641.633 655.044 641.2 657.644 641.2C661.177 641.2 664.244 641.95 666.844 643.45C669.444 644.95 671.461 647.067 672.894 649.8C674.361 652.5 675.094 655.667 675.094 659.3C675.094 662.067 674.677 664.567 673.844 666.8C673.011 669.033 671.827 670.95 670.294 672.55C668.761 674.15 666.927 675.383 664.794 676.25C662.661 677.117 660.277 677.55 657.644 677.55ZM657.644 670.95C659.611 670.95 661.277 670.5 662.644 669.6C664.044 668.667 665.111 667.333 665.844 665.6C666.611 663.833 666.994 661.75 666.994 659.35C666.994 655.683 666.177 652.85 664.544 650.85C662.911 648.817 660.611 647.8 657.644 647.8C655.711 647.8 654.044 648.25 652.644 649.15C651.244 650.05 650.177 651.367 649.444 653.1C648.711 654.833 648.344 656.917 648.344 659.35C648.344 662.983 649.161 665.833 650.794 667.9C652.427 669.933 654.711 670.95 657.644 670.95ZM684.389 677.45C683.889 677.45 683.422 677.367 682.989 677.2C682.589 677.033 682.239 676.783 681.939 676.45C681.672 676.117 681.456 675.717 681.289 675.25C681.156 674.75 681.089 674.183 681.089 673.55V645C681.089 643.833 681.389 642.933 681.989 642.3C682.622 641.633 683.522 641.3 684.689 641.3C685.889 641.3 686.789 641.633 687.389 642.3C687.989 642.933 688.289 643.833 688.289 645V665.9H687.039L704.489 643.55C705.089 642.75 705.672 642.183 706.239 641.85C706.806 641.483 707.556 641.3 708.489 641.3C709.122 641.3 709.672 641.45 710.139 641.75C710.606 642.05 710.972 642.467 711.239 643C711.506 643.533 711.639 644.15 711.639 644.85V673.7C711.639 674.9 711.322 675.833 710.689 676.5C710.089 677.133 709.206 677.45 708.039 677.45C706.872 677.45 705.972 677.133 705.339 676.5C704.739 675.833 704.439 674.9 704.439 673.7V652.8H705.639L688.239 675.15C687.606 675.95 687.022 676.533 686.489 676.9C685.989 677.267 685.289 677.45 684.389 677.45ZM696.339 639C693.872 639 691.822 638.5 690.189 637.5C688.589 636.5 687.422 635.167 686.689 633.5C686.356 632.8 686.322 632.217 686.589 631.75C686.856 631.25 687.272 630.9 687.839 630.7C688.439 630.5 688.939 630.533 689.339 630.8C689.772 631.033 690.206 631.467 690.639 632.1C691.206 633.067 691.956 633.8 692.889 634.3C693.856 634.767 695.022 635 696.389 635C697.756 635 698.906 634.767 699.839 634.3C700.806 633.8 701.572 633.067 702.139 632.1C702.572 631.467 702.989 631.033 703.389 630.8C703.822 630.533 704.339 630.5 704.939 630.7C705.506 630.9 705.906 631.233 706.139 631.7C706.406 632.167 706.372 632.767 706.039 633.5C705.239 635.167 704.022 636.5 702.389 637.5C700.789 638.5 698.772 639 696.339 639ZM745 677.45C743.734 677.45 742.767 677.1 742.1 676.4C741.434 675.7 741.1 674.717 741.1 673.45V648.15H732.25C731.217 648.15 730.417 647.867 729.85 647.3C729.284 646.733 729 645.95 729 644.95C729 643.917 729.284 643.133 729.85 642.6C730.417 642.033 731.217 641.75 732.25 641.75H757.7C758.734 641.75 759.534 642.033 760.1 642.6C760.667 643.133 760.95 643.917 760.95 644.95C760.95 645.95 760.667 646.733 760.1 647.3C759.534 647.867 758.734 648.15 757.7 648.15H748.85V673.45C748.85 674.717 748.517 675.7 747.85 676.4C747.217 677.1 746.267 677.45 745 677.45ZM768.342 677C767.042 677 766.042 676.65 765.342 675.95C764.642 675.25 764.292 674.25 764.292 672.95V645.8C764.292 644.5 764.642 643.5 765.342 642.8C766.042 642.1 767.042 641.75 768.342 641.75H785.792C786.792 641.75 787.542 642.017 788.042 642.55C788.576 643.05 788.842 643.783 788.842 644.75C788.842 645.75 788.576 646.517 788.042 647.05C787.542 647.55 786.792 647.8 785.792 647.8H771.692V656.05H784.642C785.676 656.05 786.442 656.317 786.942 656.85C787.476 657.35 787.742 658.1 787.742 659.1C787.742 660.1 787.476 660.867 786.942 661.4C786.442 661.9 785.676 662.15 784.642 662.15H771.692V670.95H785.792C786.792 670.95 787.542 671.217 788.042 671.75C788.576 672.25 788.842 672.983 788.842 673.95C788.842 674.95 788.576 675.717 788.042 676.25C787.542 676.75 786.792 677 785.792 677H768.342ZM796.424 677.45C795.424 677.45 794.59 677.183 793.924 676.65C793.29 676.083 792.924 675.4 792.824 674.6C792.724 673.767 792.99 672.917 793.624 672.05L804.674 657.4V660.85L794.074 646.75C793.44 645.85 793.157 645 793.224 644.2C793.324 643.367 793.69 642.683 794.324 642.15C794.99 641.583 795.807 641.3 796.774 641.3C797.607 641.3 798.324 641.5 798.924 641.9C799.557 642.3 800.19 642.933 800.824 643.8L809.074 655.2H806.574L814.774 643.8C815.407 642.9 816.04 642.267 816.674 641.9C817.307 641.5 818.04 641.3 818.874 641.3C819.874 641.3 820.69 641.567 821.324 642.1C821.99 642.633 822.357 643.317 822.424 644.15C822.524 644.95 822.24 645.817 821.574 646.75L810.924 660.85V657.4L821.924 672.05C822.59 672.917 822.874 673.767 822.774 674.6C822.707 675.4 822.34 676.083 821.674 676.65C821.04 677.183 820.207 677.45 819.174 677.45C818.374 677.45 817.657 677.25 817.024 676.85C816.424 676.45 815.79 675.8 815.124 674.9L806.524 663.05H809.074L800.474 674.9C799.84 675.8 799.207 676.45 798.574 676.85C797.94 677.25 797.224 677.45 796.424 677.45ZM832.352 677.45C831.086 677.45 830.119 677.1 829.452 676.4C828.786 675.7 828.452 674.717 828.452 673.45V645.3C828.452 644.033 828.786 643.05 829.452 642.35C830.119 641.65 831.086 641.3 832.352 641.3C833.586 641.3 834.536 641.65 835.202 642.35C835.869 643.05 836.202 644.033 836.202 645.3V655.9H852.602V645.3C852.602 644.033 852.936 643.05 853.602 642.35C854.269 641.65 855.219 641.3 856.452 641.3C857.719 641.3 858.686 641.65 859.352 642.35C860.019 643.05 860.352 644.033 860.352 645.3V673.45C860.352 674.717 860.019 675.7 859.352 676.4C858.686 677.1 857.719 677.45 856.452 677.45C855.219 677.45 854.269 677.1 853.602 676.4C852.936 675.7 852.602 674.717 852.602 673.45V662.35H836.202V673.45C836.202 674.717 835.869 675.7 835.202 676.4C834.569 677.1 833.619 677.45 832.352 677.45ZM870.766 677.45C870.266 677.45 869.799 677.367 869.366 677.2C868.966 677.033 868.616 676.783 868.316 676.45C868.049 676.117 867.833 675.717 867.666 675.25C867.533 674.75 867.466 674.183 867.466 673.55V645C867.466 643.833 867.766 642.933 868.366 642.3C868.999 641.633 869.899 641.3 871.066 641.3C872.266 641.3 873.166 641.633 873.766 642.3C874.366 642.933 874.666 643.833 874.666 645V665.9H873.416L890.866 643.55C891.466 642.75 892.049 642.183 892.616 641.85C893.183 641.483 893.933 641.3 894.866 641.3C895.499 641.3 896.049 641.45 896.516 641.75C896.983 642.05 897.349 642.467 897.616 643C897.883 643.533 898.016 644.15 898.016 644.85V673.7C898.016 674.9 897.699 675.833 897.066 676.5C896.466 677.133 895.583 677.45 894.416 677.45C893.249 677.45 892.349 677.133 891.716 676.5C891.116 675.833 890.816 674.9 890.816 673.7V652.8H892.016L874.616 675.15C873.983 675.95 873.399 676.533 872.866 676.9C872.366 677.267 871.666 677.45 870.766 677.45ZM909.013 677.45C907.746 677.45 906.779 677.1 906.113 676.4C905.446 675.7 905.113 674.717 905.113 673.45V645.25C905.113 643.983 905.446 643.017 906.113 642.35C906.779 641.65 907.746 641.3 909.013 641.3C910.246 641.3 911.196 641.65 911.863 642.35C912.529 643.017 912.863 643.983 912.863 645.25V656.3H917.863L916.563 657.15L925.113 643.3C925.646 642.467 926.279 641.9 927.013 641.6C927.779 641.3 928.513 641.233 929.213 641.4C929.946 641.567 930.563 641.917 931.063 642.45C931.596 642.983 931.896 643.633 931.963 644.4C932.063 645.167 931.829 646 931.263 646.9L923.613 658.7L920.513 656.55C922.779 656.95 924.663 657.767 926.163 659C927.696 660.233 929.029 662 930.163 664.3L933.863 671.9C934.396 672.933 934.563 673.85 934.363 674.65C934.196 675.45 933.796 676.083 933.163 676.55C932.529 677.017 931.813 677.283 931.013 677.35C930.246 677.45 929.479 677.317 928.713 676.95C927.979 676.55 927.413 675.883 927.013 674.95L923.313 667C922.579 665.433 921.696 664.333 920.663 663.7C919.663 663.033 918.379 662.7 916.813 662.7H912.863V673.45C912.863 674.717 912.529 675.7 911.863 676.4C911.229 677.1 910.279 677.45 909.013 677.45ZM943.178 677.45C942.678 677.45 942.211 677.367 941.778 677.2C941.378 677.033 941.028 676.783 940.728 676.45C940.461 676.117 940.245 675.717 940.078 675.25C939.945 674.75 939.878 674.183 939.878 673.55V645C939.878 643.833 940.178 642.933 940.778 642.3C941.411 641.633 942.311 641.3 943.478 641.3C944.678 641.3 945.578 641.633 946.178 642.3C946.778 642.933 947.078 643.833 947.078 645V665.9H945.828L963.278 643.55C963.878 642.75 964.461 642.183 965.028 641.85C965.595 641.483 966.345 641.3 967.278 641.3C967.911 641.3 968.461 641.45 968.928 641.75C969.395 642.05 969.761 642.467 970.028 643C970.295 643.533 970.428 644.15 970.428 644.85V673.7C970.428 674.9 970.111 675.833 969.478 676.5C968.878 677.133 967.995 677.45 966.828 677.45C965.661 677.45 964.761 677.133 964.128 676.5C963.528 675.833 963.228 674.9 963.228 673.7V652.8H964.428L947.028 675.15C946.395 675.95 945.811 676.533 945.278 676.9C944.778 677.267 944.078 677.45 943.178 677.45Z" fill="white"/>
<path d="M1012 531H1148L1089.13 630.5L1148 717H1012V531Z" fill="#9B363A"/>
<path d="M147 718H2.86102e-06L63.6269 618.5L2.86102e-06 532H147L147 718Z" fill="#9B363A"/>
</svg>
