<svg width="120" height="120" viewBox="0 0 120 120" fill="none" xmlns="http://www.w3.org/2000/svg">
<path fill-rule="evenodd" clip-rule="evenodd" d="M55 0C49.4772 0 45 4.47715 45 10V17.5606C41.8554 18.672 38.8713 20.1231 36.0916 21.8696L31.764 17.5309C27.8638 13.6206 21.5321 13.6125 17.6219 17.5127L14.0818 21.0437C10.1715 24.9439 10.1634 31.2755 14.0636 35.1858L19.4106 40.5466C17.9781 43.5301 16.8648 46.696 16.1151 50H10C4.47715 50 0 54.4772 0 60V65C0 70.5228 4.47715 75 10 75H17.5606C18.0851 76.4841 18.6853 77.9324 19.3565 79.3404L14 84.6832C10.0897 88.5834 10.0816 94.915 13.9818 98.8253L17.5128 102.365C21.413 106.276 27.7446 106.284 31.6549 102.384L35.9859 98.0637C38.7955 99.84 41.8155 101.314 45 102.439V110C45 115.523 49.4772 120 55 120H60C65.5228 120 70 115.523 70 110V103.885C73.2655 103.144 76.3961 102.048 79.349 100.639L84.6833 105.987C88.5835 109.898 94.9152 109.906 98.8254 106.006L102.365 102.475C106.276 98.5743 106.284 92.2427 102.384 88.3324L98.0687 84.0063C99.8428 81.1988 101.315 78.1815 102.439 75H110C115.523 75 120 70.5228 120 65V60C120 54.4772 115.523 50 110 50H103.885C102.749 44.9927 100.778 40.3026 98.1254 36.0838L102.456 31.7639C106.367 27.8636 106.375 21.532 102.475 17.6217L98.9436 14.0817C95.0434 10.1714 88.7118 10.1633 84.8015 14.0635L79.4448 19.4064C76.4638 17.9759 73.3008 16.8641 70 16.1151V10C70 4.47715 65.5228 0 60 0H55ZM60 80C71.0457 80 80 71.0457 80 60C80 48.9543 71.0457 40 60 40C48.9543 40 40 48.9543 40 60C40 71.0457 48.9543 80 60 80Z" fill="white"/>
</svg>
